<svg width="48" height="48" viewBox="0 0 48 48" fill="none" xmlns="http://www.w3.org/2000/svg">
<circle cx="24" cy="24" r="24" fill="#351c75"/>
<mask id="path-2-outside-1_924_863" maskUnits="userSpaceOnUse" x="8.88" y="7.60059" width="31" height="18" fill="black">
<rect fill="white" x="8.88" y="7.60059" width="31" height="18"/>
<path fill-rule="evenodd" clip-rule="evenodd" d="M27.1134 19.5021C26.2314 20.1188 25.1579 20.4806 24 20.4806C23.0647 20.4806 22.1846 20.2446 21.4159 19.8289C20.643 21.892 18.653 23.3607 16.32 23.3607C13.3156 23.3607 10.88 20.9251 10.88 17.9207C10.88 14.9162 13.3156 12.4807 16.32 12.4807C17.2552 12.4807 18.1354 12.7167 18.9041 13.1324C19.677 11.0692 21.667 9.60059 24 9.60059C26.4544 9.60059 28.5292 11.226 29.2066 13.4591C30.0886 12.8424 31.1621 12.4807 32.32 12.4807C35.3244 12.4807 37.76 14.9162 37.76 17.9207C37.76 20.9251 35.3244 23.3607 32.32 23.3607C29.8656 23.3607 27.7908 21.7352 27.1134 19.5021Z"/>
</mask>
<path fill-rule="evenodd" clip-rule="evenodd" d="M27.1134 19.5021C26.2314 20.1188 25.1579 20.4806 24 20.4806C23.0647 20.4806 22.1846 20.2446 21.4159 19.8289C20.643 21.892 18.653 23.3607 16.32 23.3607C13.3156 23.3607 10.88 20.9251 10.88 17.9207C10.88 14.9162 13.3156 12.4807 16.32 12.4807C17.2552 12.4807 18.1354 12.7167 18.9041 13.1324C19.677 11.0692 21.667 9.60059 24 9.60059C26.4544 9.60059 28.5292 11.226 29.2066 13.4591C30.0886 12.8424 31.1621 12.4807 32.32 12.4807C35.3244 12.4807 37.76 14.9162 37.76 17.9207C37.76 20.9251 35.3244 23.3607 32.32 23.3607C29.8656 23.3607 27.7908 21.7352 27.1134 19.5021Z" fill="black"/>
<path d="M27.1134 19.5021L29.0273 18.9215L28.227 16.2832L25.9675 17.863L27.1134 19.5021ZM21.4159 19.8289L22.3673 18.0696L20.3483 16.9777L19.543 19.1272L21.4159 19.8289ZM18.9041 13.1324L17.9527 14.8916L19.9717 15.9835L20.777 13.834L18.9041 13.1324ZM29.2066 13.4591L27.2927 14.0397L28.093 16.678L30.3525 15.0983L29.2066 13.4591ZM25.9675 17.863C25.4105 18.2524 24.7349 18.4806 24 18.4806V22.4806C25.581 22.4806 27.0523 21.9852 28.2594 21.1412L25.9675 17.863ZM24 18.4806C23.4051 18.4806 22.8511 18.3313 22.3673 18.0696L20.4645 21.5881C21.5182 22.1579 22.7244 22.4806 24 22.4806V18.4806ZM16.32 25.3607C19.5139 25.3607 22.2329 23.3491 23.2888 20.5305L19.543 19.1272C19.0531 20.435 17.7921 21.3607 16.32 21.3607V25.3607ZM8.88 17.9207C8.88 22.0297 12.211 25.3607 16.32 25.3607V21.3607C14.4201 21.3607 12.88 19.8205 12.88 17.9207H8.88ZM16.32 10.4807C12.211 10.4807 8.88 13.8117 8.88 17.9207H12.88C12.88 16.0208 14.4201 14.4807 16.32 14.4807V10.4807ZM19.8555 11.3732C18.8018 10.8034 17.5956 10.4807 16.32 10.4807V14.4807C16.9149 14.4807 17.4689 14.63 17.9527 14.8916L19.8555 11.3732ZM20.777 13.834C21.2669 12.5262 22.5279 11.6006 24 11.6006V7.60059C20.8061 7.60059 18.0871 9.61218 17.0312 12.4308L20.777 13.834ZM24 11.6006C25.5491 11.6006 26.8638 12.626 27.2927 14.0397L31.1204 12.8786C30.1945 9.82599 27.3597 7.60059 24 7.60059V11.6006ZM32.32 10.4807C30.739 10.4807 29.2677 10.9761 28.0606 11.82L30.3525 15.0983C30.9095 14.7088 31.5851 14.4807 32.32 14.4807V10.4807ZM39.76 17.9207C39.76 13.8117 36.429 10.4807 32.32 10.4807V14.4807C34.2199 14.4807 35.76 16.0208 35.76 17.9207H39.76ZM32.32 25.3607C36.429 25.3607 39.76 22.0297 39.76 17.9207H35.76C35.76 19.8205 34.2199 21.3607 32.32 21.3607V25.3607ZM25.1996 20.0827C26.1255 23.1353 28.9603 25.3607 32.32 25.3607V21.3607C30.7709 21.3607 29.4562 20.3352 29.0273 18.9215L25.1996 20.0827Z" fill="white" mask="url(#path-2-outside-1_924_863)"/>
<mask id="path-4-outside-2_924_863" maskUnits="userSpaceOnUse" x="7.49963" y="17.2002" width="34" height="23" fill="black">
<rect fill="white" x="7.49963" y="17.2002" width="34" height="23"/>
<path fill-rule="evenodd" clip-rule="evenodd" d="M9.49963 19.2002H38.5004V29.4406C38.5004 32.2884 36.5164 34.6728 33.8552 35.287C33.8586 35.3378 33.8602 35.389 33.8602 35.4406C33.8602 36.7219 32.8215 37.7606 31.5402 37.7606C30.2589 37.7606 29.2201 36.7219 29.2201 35.4406H18.7799C18.7798 36.7219 17.7411 37.7606 16.4598 37.7606C15.1785 37.7606 14.1397 36.7219 14.1397 35.4406C14.1397 35.389 14.1414 35.3378 14.1448 35.287C11.4836 34.6728 9.49963 32.2884 9.49963 29.4406V19.2002Z"/>
</mask>
<path fill-rule="evenodd" clip-rule="evenodd" d="M9.49963 19.2002H38.5004V29.4406C38.5004 32.2884 36.5164 34.6728 33.8552 35.287C33.8586 35.3378 33.8602 35.389 33.8602 35.4406C33.8602 36.7219 32.8215 37.7606 31.5402 37.7606C30.2589 37.7606 29.2201 36.7219 29.2201 35.4406H18.7799C18.7798 36.7219 17.7411 37.7606 16.4598 37.7606C15.1785 37.7606 14.1397 36.7219 14.1397 35.4406C14.1397 35.389 14.1414 35.3378 14.1448 35.287C11.4836 34.6728 9.49963 32.2884 9.49963 29.4406V19.2002Z" fill="black"/>
<path d="M38.5004 19.2002H40.5004V17.2002H38.5004V19.2002ZM9.49963 19.2002V17.2002H7.49963V19.2002H9.49963ZM33.8552 35.287L33.4054 33.3382L31.7486 33.7206L31.8595 35.4174L33.8552 35.287ZM29.2201 35.4406L31.2201 35.4406L31.2201 33.4406H29.2201V35.4406ZM18.7799 35.4406V33.4406H16.7799L16.7799 35.4406L18.7799 35.4406ZM14.1448 35.287L16.1405 35.4174L16.2514 33.7207L14.5946 33.3382L14.1448 35.287ZM38.5004 17.2002H9.49963V21.2002H38.5004V17.2002ZM40.5004 29.4406V19.2002H36.5004V29.4406H40.5004ZM34.305 37.2358C37.8535 36.4167 40.5004 33.2402 40.5004 29.4406H36.5004C36.5004 31.3366 35.1793 32.9288 33.4054 33.3382L34.305 37.2358ZM31.8595 35.4174C31.86 35.4249 31.8602 35.4326 31.8602 35.4406H35.8602C35.8602 35.3453 35.8571 35.2506 35.851 35.1566L31.8595 35.4174ZM31.8602 35.4406C31.8602 35.6173 31.7169 35.7606 31.5402 35.7606V39.7606C33.9261 39.7606 35.8602 37.8265 35.8602 35.4406H31.8602ZM31.5402 35.7606C31.3634 35.7606 31.2201 35.6173 31.2201 35.4406L27.2201 35.4406C27.2202 37.8265 29.1543 39.7606 31.5402 39.7606V35.7606ZM18.7799 37.4406H29.2201V33.4406H18.7799V37.4406ZM16.4598 39.7606C18.8457 39.7606 20.7798 37.8265 20.7799 35.4406L16.7799 35.4406C16.7799 35.6173 16.6366 35.7606 16.4598 35.7606V39.7606ZM12.1397 35.4406C12.1397 37.8265 14.0739 39.7606 16.4598 39.7606V35.7606C16.283 35.7606 16.1397 35.6173 16.1397 35.4406H12.1397ZM12.149 35.1566C12.1429 35.2507 12.1397 35.3454 12.1397 35.4406H16.1397C16.1397 35.4326 16.14 35.4249 16.1405 35.4174L12.149 35.1566ZM7.49963 29.4406C7.49963 33.2402 10.1465 36.4167 13.6949 37.2358L14.5946 33.3382C12.8207 32.9288 11.4996 31.3366 11.4996 29.4406H7.49963ZM7.49963 19.2002V29.4406H11.4996V19.2002H7.49963Z" fill="white" mask="url(#path-4-outside-2_924_863)"/>
</svg>
