<svg width="48" height="48" viewBox="0 0 48 48" fill="none" xmlns="http://www.w3.org/2000/svg">
<circle cx="24" cy="24" r="24" fill="#f6b26b"/>
<path d="M30.0438 9.20576C29.2441 11.3076 29.09 12.9097 29.3745 14.2785L29.3745 14.2785C29.6818 15.757 30.4847 16.8762 31.3826 17.9448C31.5888 18.1903 31.8012 18.4348 32.0159 18.682C33.6798 20.5982 35.4824 22.6741 35.6356 26.5547L35.6359 26.5601C35.8129 30.505 34.7392 33.62 32.8313 35.728L32.8312 35.7281C30.9276 37.8319 28.1252 39.0005 24.7902 39.0005C17.6388 39.0005 13.3728 34.5292 12.4142 29.3659C11.4788 24.3277 13.5968 18.5785 18.9517 15.4737C18.0818 18.7433 18.2621 21.0457 19.2139 22.469L19.214 22.4691C20.0396 23.7034 21.3678 24.2213 22.8424 24.2978L24.3868 24.3779L23.8262 22.9366C23.054 20.9512 23.2624 18.1106 24.3345 15.5123C25.4992 12.6908 27.5323 10.2424 30.0438 9.20576Z" fill="black" stroke="white" stroke-width="2"/>
<path d="M27.1998 32.6406C27.1998 34.4963 25.7671 36.0006 23.9998 36.0006C22.2325 36.0006 20.7998 34.4963 20.7998 32.6406C20.7998 29.5606 23.9998 27.6006 23.9998 27.6006C23.9998 27.6006 27.1998 29.5606 27.1998 32.6406Z" fill="white"/>
</svg>
