<svg width="48" height="48" viewBox="0 0 48 48" fill="none" xmlns="http://www.w3.org/2000/svg">
<circle cx="24" cy="24" r="24" fill="#741b47"/>
<mask id="path-2-outside-1_924_861" maskUnits="userSpaceOnUse" x="10.8" y="9.19922" width="27" height="30" fill="black">
<rect fill="white" x="10.8" y="9.19922" width="27" height="30"/>
<path fill-rule="evenodd" clip-rule="evenodd" d="M14.336 11.1992C13.4877 11.1992 12.8 11.8869 12.8 12.7352C12.8 13.5835 13.4877 14.2712 14.336 14.2712H15.36V22.4625H14.336C13.4877 22.4625 12.8 23.1502 12.8 23.9985C12.8 24.8468 13.4877 25.5345 14.336 25.5345H15.36V33.727H14.336C13.4877 33.727 12.8 34.4146 12.8 35.2629C12.8 36.1112 13.4877 36.7989 14.336 36.7989H33.2797C34.128 36.7989 34.8157 36.1112 34.8157 35.2629C34.8157 34.4146 34.128 33.727 33.2797 33.727H32.2557V25.5345H33.2797C34.128 25.5345 34.8157 24.8468 34.8157 23.9985C34.8157 23.1502 34.128 22.4625 33.2797 22.4625H32.2557V14.2712H33.2797C34.128 14.2712 34.8157 13.5835 34.8157 12.7352C34.8157 11.8869 34.128 11.1992 33.2797 11.1992H32.2557H15.36H14.336Z"/>
</mask>
<path fill-rule="evenodd" clip-rule="evenodd" d="M14.336 11.1992C13.4877 11.1992 12.8 11.8869 12.8 12.7352C12.8 13.5835 13.4877 14.2712 14.336 14.2712H15.36V22.4625H14.336C13.4877 22.4625 12.8 23.1502 12.8 23.9985C12.8 24.8468 13.4877 25.5345 14.336 25.5345H15.36V33.727H14.336C13.4877 33.727 12.8 34.4146 12.8 35.2629C12.8 36.1112 13.4877 36.7989 14.336 36.7989H33.2797C34.128 36.7989 34.8157 36.1112 34.8157 35.2629C34.8157 34.4146 34.128 33.727 33.2797 33.727H32.2557V25.5345H33.2797C34.128 25.5345 34.8157 24.8468 34.8157 23.9985C34.8157 23.1502 34.128 22.4625 33.2797 22.4625H32.2557V14.2712H33.2797C34.128 14.2712 34.8157 13.5835 34.8157 12.7352C34.8157 11.8869 34.128 11.1992 33.2797 11.1992H32.2557H15.36H14.336Z" fill="black"/>
<path d="M15.36 14.2712H17.36V12.2712H15.36V14.2712ZM15.36 22.4625V24.4625H17.36V22.4625H15.36ZM15.36 25.5345H17.36V23.5345H15.36V25.5345ZM15.36 33.727V35.727H17.36V33.727H15.36ZM32.2557 33.727H30.2557V35.727H32.2557V33.727ZM32.2557 25.5345V23.5345H30.2557V25.5345H32.2557ZM32.2557 22.4625H30.2557V24.4625H32.2557V22.4625ZM32.2557 14.2712V12.2712H30.2557V14.2712H32.2557ZM14.8 12.7352C14.8 12.9915 14.5923 13.1992 14.336 13.1992V9.19922C12.3831 9.19922 10.8 10.7823 10.8 12.7352H14.8ZM14.336 12.2712C14.5923 12.2712 14.8 12.4789 14.8 12.7352H10.8C10.8 14.6881 12.3831 16.2712 14.336 16.2712V12.2712ZM15.36 12.2712H14.336V16.2712H15.36V12.2712ZM17.36 22.4625V14.2712H13.36V22.4625H17.36ZM14.336 24.4625H15.36V20.4625H14.336V24.4625ZM14.8 23.9985C14.8 24.2548 14.5923 24.4625 14.336 24.4625V20.4625C12.3831 20.4625 10.8 22.0456 10.8 23.9985H14.8ZM14.336 23.5345C14.5923 23.5345 14.8 23.7422 14.8 23.9985H10.8C10.8 25.9513 12.3831 27.5345 14.336 27.5345V23.5345ZM15.36 23.5345H14.336V27.5345H15.36V23.5345ZM17.36 33.727V25.5345H13.36V33.727H17.36ZM14.336 35.727H15.36V31.727H14.336V35.727ZM14.8 35.2629C14.8 35.5192 14.5923 35.727 14.336 35.727V31.727C12.3831 31.727 10.8 33.3101 10.8 35.2629H14.8ZM14.336 34.7989C14.5923 34.7989 14.8 35.0067 14.8 35.2629H10.8C10.8 37.2158 12.3831 38.7989 14.336 38.7989V34.7989ZM33.2797 34.7989H14.336V38.7989H33.2797V34.7989ZM32.8157 35.2629C32.8157 35.0067 33.0234 34.7989 33.2797 34.7989V38.7989C35.2326 38.7989 36.8157 37.2158 36.8157 35.2629H32.8157ZM33.2797 35.727C33.0234 35.727 32.8157 35.5192 32.8157 35.2629H36.8157C36.8157 33.3101 35.2326 31.727 33.2797 31.727V35.727ZM32.2557 35.727H33.2797V31.727H32.2557V35.727ZM30.2557 25.5345V33.727H34.2557V25.5345H30.2557ZM33.2797 23.5345H32.2557V27.5345H33.2797V23.5345ZM32.8157 23.9985C32.8157 23.7422 33.0234 23.5345 33.2797 23.5345V27.5345C35.2326 27.5345 36.8157 25.9513 36.8157 23.9985H32.8157ZM33.2797 24.4625C33.0234 24.4625 32.8157 24.2547 32.8157 23.9985H36.8157C36.8157 22.0456 35.2326 20.4625 33.2797 20.4625V24.4625ZM32.2557 24.4625H33.2797V20.4625H32.2557V24.4625ZM30.2557 14.2712V22.4625H34.2557V14.2712H30.2557ZM33.2797 12.2712H32.2557V16.2712H33.2797V12.2712ZM32.8157 12.7352C32.8157 12.4789 33.0234 12.2712 33.2797 12.2712V16.2712C35.2326 16.2712 36.8157 14.6881 36.8157 12.7352H32.8157ZM33.2797 13.1992C33.0234 13.1992 32.8157 12.9915 32.8157 12.7352H36.8157C36.8157 10.7823 35.2326 9.19922 33.2797 9.19922V13.1992ZM32.2557 13.1992H33.2797V9.19922H32.2557V13.1992ZM15.36 13.1992H32.2557V9.19922H15.36V13.1992ZM14.336 13.1992H15.36V9.19922H14.336V13.1992Z" fill="white" mask="url(#path-2-outside-1_924_861)"/>
<path d="M27.6478 24.9725C27.6478 27.1215 25.9286 28.8636 23.8078 28.8636C21.6871 28.8636 19.9679 27.1215 19.9679 24.9725C19.9679 21.4056 23.8078 19.1357 23.8078 19.1357C23.8078 19.1357 27.6478 21.4056 27.6478 24.9725Z" fill="white"/>
<path fill-rule="evenodd" clip-rule="evenodd" d="M24.5221 27.6482C24.8796 27.5017 24.5782 27.0702 24.1918 27.0702C22.7073 27.0702 21.5039 25.8668 21.5039 24.3823C21.5039 24.1992 21.2708 24.1009 21.1986 24.2691C21.0655 24.5788 20.9919 24.9201 20.9919 25.2785C20.9919 26.6923 22.138 27.8385 23.5518 27.8385C23.8952 27.8385 24.2229 27.7708 24.5221 27.6482Z" fill="black"/>
</svg>
